<svg width="165" height="167" viewBox="0 0 165 167" fill="none" xmlns="http://www.w3.org/2000/svg">
<path d="M48.4335 84.0125C48.4335 80.839 49.2844 78.3931 50.9863 76.6748C52.4661 75.1785 54.3488 74.4304 56.6344 74.4304C59.6927 74.4304 61.929 75.4334 63.3431 77.4394C64.1241 78.5658 64.5434 79.6962 64.6009 80.8308H60.8026C60.556 79.9593 60.2395 79.3016 59.8531 78.8576C59.1625 78.0684 58.1389 77.6737 56.7824 77.6737C55.4012 77.6737 54.3118 78.2328 53.5143 79.3509C52.7169 80.4608 52.3181 82.0352 52.3181 84.0741C52.3181 86.113 52.7374 87.6422 53.576 88.6617C54.4228 89.6729 55.4957 90.1785 56.7947 90.1785C58.1266 90.1785 59.1419 89.7428 59.8407 88.8713C60.2271 88.4027 60.5478 87.6998 60.8026 86.7625H64.5639C64.2351 88.7439 63.3924 90.3553 62.0358 91.5967C60.6875 92.8381 58.9569 93.4589 56.844 93.4589C54.2296 93.4589 52.1743 92.6203 50.678 90.9431C49.1817 89.2577 48.4335 86.9475 48.4335 84.0125ZM70.2244 87.3421C70.3395 88.1725 70.5656 88.7932 70.9026 89.2043C71.5193 89.9524 72.5757 90.3265 74.072 90.3265C74.9681 90.3265 75.6957 90.2278 76.2548 90.0305C77.3154 89.6523 77.8456 88.9494 77.8456 87.9217C77.8456 87.3216 77.5825 86.8571 77.0564 86.5282C76.5302 86.2076 75.704 85.9239 74.5776 85.6773L72.6538 85.2457C70.7629 84.8182 69.4557 84.3536 68.7322 83.8521C67.5072 83.0136 66.8947 81.7022 66.8947 79.9182C66.8947 78.2903 67.4866 76.9379 68.6705 75.8609C69.8544 74.7839 71.5932 74.2454 73.887 74.2454C75.8026 74.2454 77.4346 74.7551 78.7829 75.7746C80.1394 76.7858 80.8506 78.2575 80.9163 80.1895H77.266C77.2003 79.096 76.7234 78.3191 75.8355 77.8587C75.2436 77.5545 74.5077 77.4024 73.628 77.4024C72.6497 77.4024 71.8687 77.5997 71.2849 77.9944C70.7012 78.389 70.4094 78.9398 70.4094 79.6469C70.4094 80.2964 70.6971 80.7814 71.2726 81.1021C71.6426 81.3158 72.4318 81.5666 73.6404 81.8543L76.7727 82.6066C78.1457 82.9354 79.1816 83.3753 79.8804 83.9261C80.9657 84.7812 81.5083 86.0185 81.5083 87.6381C81.5083 89.2988 80.8711 90.68 79.5968 91.7817C78.3307 92.8751 76.5384 93.4219 74.22 93.4219C71.8522 93.4219 69.9901 92.8834 68.6335 91.8064C67.277 90.7211 66.5987 89.2331 66.5987 87.3421H70.2244ZM88.1183 77.9327V82.8162H92.4222C93.2772 82.8162 93.9185 82.7176 94.346 82.5203C95.1024 82.175 95.4806 81.4926 95.4806 80.4731C95.4806 79.3715 95.1147 78.6315 94.383 78.2534C93.9719 78.0396 93.3553 77.9327 92.5332 77.9327H88.1183ZM93.3225 74.7757C94.5968 74.8004 95.5751 74.9566 96.2575 75.2443C96.9481 75.5321 97.5318 75.9555 98.0087 76.5145C98.4033 76.9749 98.7157 77.4846 98.9459 78.0437C99.1761 78.6028 99.2912 79.2399 99.2912 79.9552C99.2912 80.8184 99.0733 81.6694 98.6376 82.5079C98.2019 83.3383 97.4825 83.9261 96.4795 84.2714C97.3181 84.6085 97.91 85.0895 98.2553 85.7143C98.6088 86.3309 98.7856 87.2764 98.7856 88.5507V89.7716C98.7856 90.6019 98.8185 91.1651 98.8842 91.4611C98.9829 91.9297 99.2131 92.275 99.5748 92.497V92.9532H95.3943C95.2792 92.5504 95.1969 92.2257 95.1476 91.979C95.049 91.4693 94.9955 90.9472 94.9873 90.4128L94.9626 88.7233C94.9462 87.5641 94.7324 86.7913 94.3214 86.4049C93.9185 86.0185 93.158 85.8253 92.0399 85.8253H88.1183V92.9532H84.4063V74.7757H93.3225ZM106.259 77.9327V89.7962H109.761C111.553 89.7962 112.803 88.9124 113.51 87.1448C113.897 86.1747 114.09 85.0196 114.09 83.6795C114.09 81.8297 113.798 80.4115 113.214 79.4249C112.639 78.4301 111.488 77.9327 109.761 77.9327H106.259ZM110.402 74.7757C111.529 74.7921 112.466 74.9237 113.214 75.1703C114.488 75.5896 115.52 76.3583 116.31 77.4764C116.943 78.3808 117.374 79.3591 117.604 80.4115C117.835 81.4638 117.95 82.4668 117.95 83.4205C117.95 85.8376 117.465 87.8847 116.495 89.5619C115.179 91.8228 113.148 92.9532 110.402 92.9532H102.572V74.7757H110.402Z" fill="#133133"/>
<path d="M22.335 36.2127C22.5474 35.5591 23.4721 35.5591 23.6844 36.2127L26.0413 43.4664C26.1363 43.7587 26.4087 43.9566 26.716 43.9566H34.343C35.0303 43.9566 35.316 44.836 34.76 45.24L28.5897 49.723C28.341 49.9037 28.237 50.2239 28.332 50.5162L30.6888 57.7699C30.9012 58.4236 30.1531 58.9671 29.5971 58.5631L23.4267 54.0801C23.1781 53.8994 22.8414 53.8994 22.5927 54.0801L16.4223 58.5631C15.8663 58.9671 15.1183 58.4236 15.3306 57.7699L17.6875 50.5162C17.7825 50.2239 17.6784 49.9037 17.4298 49.723L11.2594 45.24C10.7034 44.836 10.9892 43.9566 11.6764 43.9566H19.3034C19.6108 43.9566 19.8832 43.7587 19.9781 43.4664L22.335 36.2127Z" fill="#F0AD18"/>
<path d="M151.069 69.9016C150.857 69.248 149.932 69.248 149.72 69.9017L147.363 77.1554C147.268 77.4477 146.996 77.6456 146.688 77.6456H139.061C138.374 77.6456 138.088 78.525 138.644 78.929L144.815 83.412C145.063 83.5927 145.167 83.9129 145.072 84.2052L142.715 91.4589C142.503 92.1125 143.251 92.656 143.807 92.2521L149.978 87.769C150.226 87.5884 150.563 87.5884 150.812 87.769L156.982 92.2521C157.538 92.656 158.286 92.1125 158.074 91.4589L155.717 84.2052C155.622 83.9129 155.726 83.5927 155.975 83.412L162.145 78.929C162.701 78.525 162.415 77.6456 161.728 77.6456H154.101C153.794 77.6456 153.521 77.4477 153.426 77.1554L151.069 69.9016Z" fill="#F0AD18"/>
<path d="M47.6016 10.9472C47.814 10.2936 48.7387 10.2936 48.951 10.9472L51.3079 18.2009C51.4029 18.4932 51.6753 18.6911 51.9826 18.6911H59.6096C60.2969 18.6911 60.5826 19.5705 60.0266 19.9745L53.8563 24.4575C53.6076 24.6382 53.5036 24.9584 53.5986 25.2507L55.9554 32.5044C56.1678 33.1581 55.4197 33.7016 54.8637 33.2976L48.6933 28.8146C48.4447 28.6339 48.108 28.6339 47.8593 28.8146L41.689 33.2976C41.1329 33.7016 40.3849 33.1581 40.5972 32.5044L42.9541 25.2507C43.0491 24.9584 42.945 24.6382 42.6964 24.4575L36.526 19.9745C35.97 19.5705 36.2558 18.6911 36.943 18.6911H44.57C44.8774 18.6911 45.1498 18.4932 45.2447 18.2009L47.6016 10.9472Z" fill="#F0AD18"/>
<path d="M47.6016 128.857C47.814 128.203 48.7387 128.203 48.951 128.857L51.3079 136.11C51.4029 136.403 51.6753 136.601 51.9826 136.601H59.6096C60.2969 136.601 60.5826 137.48 60.0266 137.884L53.8563 142.367C53.6076 142.548 53.5036 142.868 53.5986 143.16L55.9554 150.414C56.1678 151.068 55.4197 151.611 54.8637 151.207L48.6933 146.724C48.4447 146.543 48.108 146.543 47.8593 146.724L41.689 151.207C41.1329 151.611 40.3849 151.068 40.5972 150.414L42.9541 143.16C43.0491 142.868 42.945 142.548 42.6964 142.367L36.526 137.884C35.97 137.48 36.2558 136.601 36.943 136.601H44.57C44.8774 136.601 45.1498 136.403 45.2447 136.11L47.6016 128.857Z" fill="#F0AD18"/>
<path d="M141.595 103.59C141.382 102.936 140.458 102.936 140.245 103.59L137.888 110.843C137.793 111.136 137.521 111.334 137.214 111.334H129.587C128.899 111.334 128.614 112.213 129.17 112.617L135.34 117.1C135.589 117.281 135.693 117.601 135.598 117.893L133.241 125.147C133.028 125.801 133.777 126.344 134.333 125.94L140.503 121.457C140.752 121.276 141.088 121.276 141.337 121.457L147.507 125.94C148.063 126.344 148.811 125.801 148.599 125.147L146.242 117.893C146.147 117.601 146.251 117.281 146.5 117.1L152.67 112.617C153.226 112.213 152.941 111.334 152.253 111.334H144.626C144.319 111.334 144.047 111.136 143.952 110.843L141.595 103.59Z" fill="#F0AD18"/>
<path d="M81.2901 2.52445C81.5025 1.87083 82.4272 1.87084 82.6395 2.52445L84.9964 9.77816C85.0914 10.0705 85.3638 10.2684 85.6711 10.2684H93.2981C93.9854 10.2684 94.2711 11.1478 93.7151 11.5518L87.5447 16.0348C87.2961 16.2155 87.1921 16.5357 87.287 16.828L89.6439 24.0817C89.8563 24.7353 89.1082 25.2788 88.5522 24.8749L82.3818 20.3918C82.1332 20.2112 81.7965 20.2112 81.5478 20.3918L75.3774 24.8749C74.8214 25.2788 74.0733 24.7353 74.2857 24.0817L76.6426 16.828C76.7376 16.5357 76.6335 16.2155 76.3849 16.0348L70.2145 11.5518C69.6585 11.1478 69.9442 10.2684 70.6315 10.2684H78.2585C78.5658 10.2684 78.8382 10.0705 78.9332 9.77816L81.2901 2.52445Z" fill="#F0AD18"/>
<path d="M81.2901 140.437C81.5025 139.784 82.4272 139.784 82.6395 140.437L84.9964 147.691C85.0914 147.983 85.3638 148.181 85.6711 148.181H93.2981C93.9854 148.181 94.2711 149.061 93.7151 149.465L87.5447 153.948C87.2961 154.128 87.1921 154.449 87.287 154.741L89.6439 161.995C89.8563 162.648 89.1082 163.192 88.5522 162.788L82.3818 158.305C82.1332 158.124 81.7965 158.124 81.5478 158.305L75.3774 162.788C74.8214 163.192 74.0733 162.648 74.2857 161.995L76.6426 154.741C76.7376 154.449 76.6335 154.128 76.3849 153.948L70.2145 149.465C69.6585 149.061 69.9442 148.181 70.6315 148.181H78.2585C78.5658 148.181 78.8382 147.983 78.9332 147.691L81.2901 140.437Z" fill="#F0AD18"/>
<path d="M114.979 10.9472C115.191 10.2936 116.116 10.2936 116.328 10.9472L118.685 18.2009C118.78 18.4932 119.053 18.6911 119.36 18.6911H126.987C127.674 18.6911 127.96 19.5705 127.404 19.9745L121.234 24.4575C120.985 24.6382 120.881 24.9584 120.976 25.2507L123.333 32.5044C123.545 33.1581 122.797 33.7016 122.241 33.2976L116.071 28.8146C115.822 28.6339 115.485 28.6339 115.237 28.8146L109.066 33.2976C108.51 33.7016 107.762 33.1581 107.975 32.5044L110.332 25.2507C110.427 24.9584 110.322 24.6382 110.074 24.4575L103.903 19.9745C103.347 19.5705 103.633 18.6911 104.32 18.6911H111.947C112.255 18.6911 112.527 18.4932 112.622 18.2009L114.979 10.9472Z" fill="#F0AD18"/>
<path d="M114.979 128.857C115.191 128.203 116.116 128.203 116.328 128.857L118.685 136.11C118.78 136.403 119.053 136.601 119.36 136.601H126.987C127.674 136.601 127.96 137.48 127.404 137.884L121.234 142.367C120.985 142.548 120.881 142.868 120.976 143.16L123.333 150.414C123.545 151.068 122.797 151.611 122.241 151.207L116.071 146.724C115.822 146.543 115.485 146.543 115.237 146.724L109.066 151.207C108.51 151.611 107.762 151.068 107.975 150.414L110.332 143.16C110.427 142.868 110.322 142.548 110.074 142.367L103.903 137.884C103.347 137.48 103.633 136.601 104.32 136.601H111.947C112.255 136.601 112.527 136.403 112.622 136.11L114.979 128.857Z" fill="#F0AD18"/>
<path d="M23.684 103.59C23.4717 102.936 22.547 102.936 22.3346 103.59L19.9777 110.843C19.8827 111.136 19.6103 111.334 19.303 111.334H11.676C10.9887 111.334 10.703 112.213 11.259 112.617L17.4294 117.1C17.678 117.281 17.7821 117.601 17.6871 117.893L15.3302 125.147C15.1178 125.801 15.8659 126.344 16.4219 125.94L22.5923 121.457C22.841 121.276 23.1777 121.276 23.4263 121.457L29.5967 125.94C30.1527 126.344 30.9008 125.801 30.6884 125.147L28.3315 117.893C28.2366 117.601 28.3406 117.281 28.5893 117.1L34.7596 112.617C35.3156 112.213 35.0299 111.334 34.3426 111.334H26.7156C26.4083 111.334 26.1359 111.136 26.0409 110.843L23.684 103.59Z" fill="#F0AD18"/>
<path d="M140.245 36.2127C140.458 35.5591 141.382 35.5591 141.595 36.2127L143.951 43.4664C144.046 43.7587 144.319 43.9566 144.626 43.9566H152.253C152.94 43.9566 153.226 44.836 152.67 45.24L146.5 49.723C146.251 49.9037 146.147 50.2239 146.242 50.5162L148.599 57.7699C148.811 58.4236 148.063 58.9671 147.507 58.5631L141.337 54.0801C141.088 53.8994 140.752 53.8994 140.503 54.0801L134.333 58.5631C133.777 58.9671 133.028 58.4236 133.241 57.7699L135.598 50.5162C135.693 50.2239 135.589 49.9037 135.34 49.723L129.17 45.24C128.614 44.836 128.899 43.9566 129.587 43.9566H137.214C137.521 43.9566 137.793 43.7587 137.888 43.4664L140.245 36.2127Z" fill="#F0AD18"/>
<path d="M15.2627 69.9016C15.0503 69.248 14.1256 69.248 13.9132 69.9017L11.5563 77.1554C11.4614 77.4477 11.189 77.6456 10.8816 77.6456H3.25461C2.56735 77.6456 2.28161 78.525 2.83761 78.929L9.00799 83.412C9.25664 83.5927 9.36068 83.9129 9.26571 84.2052L6.90883 91.4589C6.69646 92.1125 7.44455 92.656 8.00056 92.2521L14.1709 87.769C14.4196 87.5884 14.7563 87.5884 15.0049 87.769L21.1753 92.2521C21.7313 92.656 22.4794 92.1125 22.267 91.4589L19.9102 84.2052C19.8152 83.9129 19.9192 83.5927 20.1679 83.412L26.3383 78.929C26.8943 78.525 26.6085 77.6456 25.9212 77.6456H18.2942C17.9869 77.6456 17.7145 77.4477 17.6195 77.1554L15.2627 69.9016Z" fill="#F0AD18"/>
</svg>
