<svg width="95" height="79" viewBox="0 0 95 79" fill="none" xmlns="http://www.w3.org/2000/svg">
<path fill-rule="evenodd" clip-rule="evenodd" d="M85.7398 66.3909C85.7398 66.3916 85.7401 66.3924 85.7406 66.3929L93.4606 74.1283C94.3115 74.9809 94.3117 76.3614 93.4611 77.2142C92.6077 78.07 91.2217 78.0702 90.368 77.2148L82.7319 69.5634C82.6925 69.5239 82.6299 69.5196 82.5852 69.553C79.5139 71.8401 75.6963 72.8895 71.888 72.4911C68.0474 72.0893 64.5013 70.2448 61.9632 67.3288C59.425 64.4129 58.0834 60.6419 58.2082 56.7747C58.333 52.9075 59.915 49.2312 62.6358 46.4856C65.3566 43.7401 69.0143 42.129 72.8728 41.9766C76.7312 41.8242 80.5041 43.1419 83.4321 45.6644C86.3602 48.1869 88.226 51.727 88.6541 55.5724C89.0822 59.4174 88.0411 63.2822 85.7403 66.3891C85.74 66.3896 85.7398 66.3902 85.7398 66.3909ZM84.3825 57.2706C84.3825 54.3713 83.2331 51.5907 81.1871 49.5406C79.141 47.4905 76.366 46.3387 73.4725 46.3387C70.579 46.3387 67.804 47.4905 65.758 49.5406C63.7119 51.5907 62.5625 54.3713 62.5625 57.2706C62.5625 60.1699 63.7119 62.9504 65.758 65.0005C67.804 67.0507 70.579 68.2024 73.4725 68.2024C76.366 68.2024 79.141 67.0507 81.1871 65.0005C83.2331 62.9504 84.3825 60.1699 84.3825 57.2706Z" fill="#FFD4A6"/>
<path d="M9.73438 24.5515L9.73438 60.9197" stroke="#FFD4A6" stroke-width="5" stroke-linecap="round"/>
<path d="M23.2041 13.7758L23.2041 60.9197" stroke="#FFD4A6" stroke-width="5" stroke-linecap="round"/>
<path d="M54.9531 71.1882H3.00018" stroke="#FFD4A6" stroke-width="5" stroke-linecap="round"/>
<path d="M36.6738 3V60.9197" stroke="#FFD4A6" stroke-width="5" stroke-linecap="round"/>
<path d="M50.1436 13.7758L50.1436 60.9197" stroke="#FFD4A6" stroke-width="5" stroke-linecap="round"/>
<path d="M63.6113 8.41174L63.6113 36.5529" stroke="#FFD4A6" stroke-width="5" stroke-linecap="round"/>
</svg>
