<svg width="62" height="69" viewBox="0 0 62 69" fill="none" xmlns="http://www.w3.org/2000/svg">
<path d="M6.04828 44.5327L7.93632 47.4243L12.2128 49.9713L15.5788 51.4748C17.1324 52.1688 18.7506 52.7079 20.41 53.0844C23.0075 53.6738 25.6804 53.8588 28.3344 53.633L28.627 53.6081C31.4441 53.3684 34.2008 52.6572 36.7822 51.5041C37.982 50.9682 39.1381 50.3394 40.24 49.6235L43.9964 47.1829C45.6105 46.1341 47.1045 44.9111 48.4514 43.5359C50.4139 41.5322 52.0429 39.2271 53.2764 36.7082L54.2652 34.6892L57.1162 25.9565L58.5417 18.3154L59.0762 14.8588L59.6108 10.6744L59.789 7.03576L59.9625 2.78326C59.9644 2.73755 59.9125 2.71007 59.8757 2.73735L59.5564 2.97449C57.2345 4.69857 54.6305 6.0057 51.8607 6.83744C50.6146 7.21165 49.3411 7.48778 48.0519 7.66328L47.5691 7.72901C45.6227 7.99397 43.6557 8.07429 41.6943 7.96888L37.8719 7.76348L33.7434 7.34196C31.7472 7.13815 29.738 7.09284 27.7346 7.20648C25.4692 7.33498 23.2198 7.66624 21.0135 8.19627L18.2712 8.85506L15.9232 9.75404C13.7022 10.6044 11.6355 11.8128 9.80504 13.3313L9.434 13.6391C7.73574 15.0479 6.29544 16.7413 5.17749 18.6437C4.17189 20.3549 3.4402 22.2129 3.00894 24.1503L2.58388 26.0598C2.11545 28.1642 1.93732 30.3228 2.05446 32.4755C2.17377 34.6683 2.5983 36.8337 3.31577 38.9092L3.37119 39.0696C4.03625 40.9935 4.93535 42.8283 6.04828 44.5327Z" fill="#166B30"/>
<path d="M4.72894 67.0727L5.08531 63.0703L5.44169 60.5233L6.33263 54.7015L7.22357 50.3352L7.93632 47.4243M7.93632 47.4243L6.04828 44.5327C4.93535 42.8283 4.03625 40.9935 3.37119 39.0696L3.31577 38.9092C2.5983 36.8337 2.17377 34.6683 2.05446 32.4755V32.4755C1.93732 30.3228 2.11545 28.1642 2.58388 26.0598L3.00894 24.1503C3.4402 22.2129 4.17189 20.3549 5.17749 18.6437V18.6437C6.29544 16.7413 7.73574 15.0479 9.434 13.6391L9.80504 13.3313C11.6355 11.8128 13.7022 10.6044 15.9232 9.75404L18.2712 8.85506L21.0135 8.19627C23.2198 7.66624 25.4692 7.33498 27.7346 7.20648V7.20648C29.738 7.09285 31.7472 7.13815 33.7434 7.34196L37.8719 7.76348L41.6943 7.96888C43.6557 8.07429 45.6227 7.99397 47.5691 7.72901L48.0519 7.66328C49.3411 7.48778 50.6146 7.21165 51.8607 6.83744V6.83744C54.6305 6.0057 57.2345 4.69857 59.5564 2.97449L59.8757 2.73735C59.9125 2.71007 59.9644 2.73755 59.9625 2.78326L59.789 7.03576L59.6108 10.6744L59.0762 14.8588L58.5417 18.3154L57.1162 25.9565L54.2652 34.6892L53.2764 36.7082C52.0429 39.2271 50.4139 41.5322 48.4514 43.5359V43.5359C47.1045 44.9111 45.6105 46.1341 43.9964 47.1829L40.24 49.6235C39.1381 50.3394 37.982 50.9682 36.7822 51.5041V51.5041C34.2008 52.6572 31.4441 53.3684 28.627 53.6081L28.3344 53.633C25.6804 53.8588 23.0075 53.6738 20.41 53.0844V53.0844C18.7506 52.7079 17.1324 52.1688 15.5788 51.4748L12.2128 49.9713L7.93632 47.4243ZM7.93632 47.4243L10.0746 42.6941L12.5692 37.9639" stroke="#166B30" stroke-width="3.78843" stroke-linecap="round"/>
<path d="M38.3887 23.1353H26.8458V27.7672H37.4416V31.5557H26.8458V37.1643H38.9215V41.0859H22.3915V19.2729H38.3887V23.1353Z" fill="white"/>
</svg>
