<svg width="270" height="167" viewBox="0 0 270 167" fill="none" xmlns="http://www.w3.org/2000/svg">
<path d="M18.7113 60.0843H7.16841V64.7162H17.7642V68.5046H7.16841V74.1133H19.244V78.0349H2.71405V56.2218H18.7113V60.0843ZM22.7957 56.2218H27.4276V69.6293C27.4276 71.1289 27.6052 72.224 27.9604 72.9146C28.5129 74.138 29.7165 74.7496 31.5712 74.7496C33.4161 74.7496 34.6148 74.138 35.1673 72.9146C35.5224 72.224 35.7 71.1289 35.7 69.6293V56.2218H40.332V69.6293C40.332 71.9478 39.9719 73.7532 39.2517 75.0456C37.9099 77.4134 35.3498 78.5973 31.5712 78.5973C27.7927 78.5973 25.2276 77.4134 23.876 75.0456C23.1558 73.7532 22.7957 71.9478 22.7957 69.6293V56.2218ZM68.982 56.2218V60.0843H62.4558V78.0349H57.8683V60.0843H51.3125V56.2218H68.982ZM77.9647 70.1917C77.6983 70.3594 77.427 70.4975 77.1508 70.606C76.8844 70.7047 76.5144 70.7984 76.0409 70.8872L75.0938 71.0648C74.2059 71.2226 73.5695 71.415 73.1848 71.6419C72.5336 72.0267 72.2081 72.6236 72.2081 73.4326C72.2081 74.1528 72.4054 74.6756 72.8 75.0012C73.2045 75.3169 73.6928 75.4748 74.2651 75.4748C75.1727 75.4748 76.0064 75.2084 76.766 74.6756C77.5355 74.1429 77.9351 73.1711 77.9647 71.7603V70.1917ZM75.4045 68.2235C76.1839 68.1248 76.7413 68.0015 77.0768 67.8535C77.6786 67.597 77.9795 67.1974 77.9795 66.6548C77.9795 65.9938 77.7476 65.54 77.284 65.2934C76.8301 65.0368 76.1593 64.9086 75.2714 64.9086C74.2749 64.9086 73.5695 65.1552 73.1552 65.6485C72.8592 66.0136 72.6619 66.5068 72.5632 67.1284H68.4936C68.5824 65.7176 68.977 64.5584 69.6775 63.6507C70.7923 62.2301 72.7063 61.5197 75.4193 61.5197C77.1853 61.5197 78.7539 61.87 80.1253 62.5704C81.4966 63.2709 82.1823 64.5929 82.1823 66.5364V73.9357C82.1823 74.4487 82.1921 75.0703 82.2119 75.8003C82.2415 76.3528 82.3253 76.7277 82.4635 76.925C82.6016 77.1223 82.8088 77.2851 83.085 77.4134V78.0349H78.4974C78.3692 77.7093 78.2804 77.4035 78.2311 77.1174C78.1817 76.8313 78.1423 76.5057 78.1127 76.1407C77.5306 76.7721 76.8597 77.3098 76.1001 77.7537C75.1924 78.2766 74.1664 78.5381 73.022 78.5381C71.5619 78.5381 70.3533 78.1237 69.3963 77.295C68.4492 76.4564 67.9757 75.2725 67.9757 73.7433C67.9757 71.7603 68.7403 70.3249 70.2694 69.437C71.108 68.9535 72.3412 68.6082 73.9691 68.4011L75.4045 68.2235ZM84.3577 78.0349L89.8627 69.8661L84.5944 61.9341H89.7591L92.4525 66.6104L95.0866 61.9341H100.103L94.8054 69.7921L100.311 78.0349H95.057L92.2749 73.1958L89.478 78.0349H84.3577ZM110.048 75.0604C111.281 75.0604 112.228 74.6214 112.889 73.7433C113.55 72.8653 113.881 71.6173 113.881 69.9993C113.881 68.3813 113.55 67.1382 112.889 66.2701C112.228 65.392 111.281 64.953 110.048 64.953C108.815 64.953 107.863 65.392 107.192 66.2701C106.531 67.1382 106.2 68.3813 106.2 69.9993C106.2 71.6173 106.531 72.8653 107.192 73.7433C107.863 74.6214 108.815 75.0604 110.048 75.0604ZM118.306 69.9993C118.306 72.3671 117.625 74.3945 116.263 76.0815C114.902 77.7587 112.835 78.5973 110.063 78.5973C107.29 78.5973 105.224 77.7587 103.862 76.0815C102.501 74.3945 101.82 72.3671 101.82 69.9993C101.82 67.671 102.501 65.6535 103.862 63.9467C105.224 62.2399 107.29 61.3865 110.063 61.3865C112.835 61.3865 114.902 62.2399 116.263 63.9467C117.625 65.6535 118.306 67.671 118.306 69.9993ZM130.278 61.5197C131.945 61.5197 133.306 61.9587 134.362 62.8368C135.427 63.705 135.96 65.1503 135.96 67.1728V78.0349H131.639V68.2235C131.639 67.375 131.526 66.7239 131.299 66.2701C130.884 65.4413 130.095 65.027 128.931 65.027C127.5 65.027 126.519 65.6337 125.986 66.8472C125.71 67.4885 125.572 68.3073 125.572 69.3038V78.0349H121.369V61.9341H125.438V64.2871C125.981 63.4583 126.494 62.8615 126.978 62.4964C127.846 61.8453 128.946 61.5197 130.278 61.5197ZM147.104 75.0604C148.337 75.0604 149.284 74.6214 149.945 73.7433C150.606 72.8653 150.936 71.6173 150.936 69.9993C150.936 68.3813 150.606 67.1382 149.945 66.2701C149.284 65.392 148.337 64.953 147.104 64.953C145.87 64.953 144.918 65.392 144.247 66.2701C143.586 67.1382 143.256 68.3813 143.256 69.9993C143.256 71.6173 143.586 72.8653 144.247 73.7433C144.918 74.6214 145.87 75.0604 147.104 75.0604ZM155.361 69.9993C155.361 72.3671 154.68 74.3945 153.319 76.0815C151.957 77.7587 149.891 78.5973 147.118 78.5973C144.346 78.5973 142.279 77.7587 140.918 76.0815C139.556 74.3945 138.876 72.3671 138.876 69.9993C138.876 67.671 139.556 65.6535 140.918 63.9467C142.279 62.2399 144.346 61.3865 147.118 61.3865C149.891 61.3865 151.957 62.2399 153.319 63.9467C154.68 65.6535 155.361 67.671 155.361 69.9993ZM176.419 61.5493C177.13 61.5493 177.83 61.6874 178.521 61.9637C179.211 62.2399 179.838 62.7233 180.4 63.4139C180.854 63.9763 181.16 64.6669 181.318 65.4857C181.416 66.0284 181.466 66.8225 181.466 67.8683L181.436 78.0349H177.115V67.7647C177.115 67.153 177.016 66.6499 176.819 66.2553C176.444 65.5055 175.754 65.1306 174.747 65.1306C173.583 65.1306 172.779 65.614 172.335 66.5808C172.108 67.0938 171.995 67.7105 171.995 68.4307V78.0349H167.748V68.4307C167.748 67.4737 167.649 66.7781 167.452 66.3441C167.096 65.5647 166.401 65.175 165.365 65.175C164.161 65.175 163.352 65.5647 162.938 66.3441C162.711 66.788 162.598 67.449 162.598 68.3271V78.0349H158.321V61.9341H162.42V64.2871C162.943 63.4485 163.436 62.8516 163.9 62.4964C164.719 61.865 165.779 61.5493 167.082 61.5493C168.315 61.5493 169.311 61.8206 170.071 62.3632C170.683 62.8664 171.146 63.5126 171.462 64.3019C172.014 63.3547 172.7 62.6592 173.519 62.2153C174.387 61.7713 175.354 61.5493 176.419 61.5493ZM186.009 81.1278L186.542 81.1574C186.956 81.1771 187.351 81.1623 187.726 81.113C188.1 81.0637 188.416 80.9502 188.673 80.7726C188.919 80.6049 189.146 80.2547 189.353 79.7219C189.57 79.1892 189.659 78.8636 189.62 78.7452L183.7 61.9045H188.391L191.914 73.8025L195.243 61.9045H199.727L194.193 77.7685C193.127 80.8269 192.284 82.7211 191.662 83.4512C191.04 84.1911 189.797 84.5611 187.933 84.5611C187.558 84.5611 187.257 84.5561 187.03 84.5463C186.803 84.5463 186.463 84.5315 186.009 84.5019V81.1278Z" fill="#133133"/>
<path d="M255.774 69.9245C255.562 69.2709 254.637 69.2709 254.424 69.9245L252.068 77.1782C251.973 77.4705 251.7 77.6684 251.393 77.6684H243.766C243.079 77.6684 242.793 78.5478 243.349 78.9518L249.519 83.4348C249.768 83.6155 249.872 83.9357 249.777 84.228L247.42 91.4817C247.208 92.1354 247.956 92.6789 248.512 92.2749L254.682 87.7919C254.931 87.6112 255.268 87.6112 255.516 87.7919L261.687 92.2749C262.243 92.6789 262.991 92.1353 262.778 91.4817L260.421 84.228C260.326 83.9357 260.43 83.6155 260.679 83.4348L266.849 78.9518C267.405 78.5478 267.12 77.6684 266.432 77.6684H258.805C258.498 77.6684 258.226 77.4705 258.131 77.1782L255.774 69.9245Z" fill="#F0AD18"/>
<path d="M152.306 10.9704C152.519 10.3168 153.443 10.3168 153.656 10.9704L156.013 18.2241C156.107 18.5164 156.38 18.7143 156.687 18.7143H164.314C165.001 18.7143 165.287 19.5937 164.731 19.9977L158.561 24.4807C158.312 24.6614 158.208 24.9816 158.303 25.2739L160.66 32.5276C160.872 33.1812 160.124 33.7248 159.568 33.3208L153.398 28.8378C153.149 28.6571 152.813 28.6571 152.564 28.8378L146.394 33.3208C145.838 33.7248 145.089 33.1812 145.302 32.5276L147.659 25.2739C147.754 24.9816 147.65 24.6614 147.401 24.4807L141.231 19.9977C140.675 19.5937 140.96 18.7143 141.648 18.7143H149.275C149.582 18.7143 149.854 18.5164 149.949 18.2241L152.306 10.9704Z" fill="#F0AD18"/>
<path d="M152.306 128.881C152.519 128.227 153.443 128.227 153.656 128.881L156.013 136.134C156.107 136.427 156.38 136.625 156.687 136.625H164.314C165.001 136.625 165.287 137.504 164.731 137.908L158.561 142.391C158.312 142.572 158.208 142.892 158.303 143.184L160.66 150.438C160.872 151.092 160.124 151.635 159.568 151.231L153.398 146.748C153.149 146.568 152.813 146.568 152.564 146.748L146.394 151.231C145.838 151.635 145.089 151.092 145.302 150.438L147.659 143.184C147.754 142.892 147.65 142.572 147.401 142.391L141.231 137.908C140.675 137.504 140.96 136.625 141.648 136.625H149.275C149.582 136.625 149.854 136.427 149.949 136.134L152.306 128.881Z" fill="#F0AD18"/>
<path d="M246.299 103.613C246.086 102.959 245.162 102.959 244.949 103.613L242.592 110.867C242.497 111.159 242.225 111.357 241.918 111.357H234.291C233.603 111.357 233.318 112.236 233.874 112.64L240.044 117.123C240.293 117.304 240.397 117.624 240.302 117.916L237.945 125.17C237.733 125.824 238.481 126.367 239.037 125.963L245.207 121.48C245.456 121.3 245.792 121.3 246.041 121.48L252.211 125.963C252.767 126.367 253.516 125.824 253.303 125.17L250.946 117.916C250.851 117.624 250.955 117.304 251.204 117.123L257.374 112.64C257.93 112.236 257.645 111.357 256.957 111.357H249.33C249.023 111.357 248.751 111.159 248.656 110.867L246.299 103.613Z" fill="#F0AD18"/>
<path d="M185.995 2.54789C186.208 1.89427 187.132 1.89427 187.345 2.54789L189.701 9.8016C189.796 10.0939 190.069 10.2918 190.376 10.2918H198.003C198.69 10.2918 198.976 11.1713 198.42 11.5752L192.25 16.0583C192.001 16.2389 191.897 16.5591 191.992 16.8514L194.349 24.1051C194.561 24.7588 193.813 25.3023 193.257 24.8983L187.087 20.4153C186.838 20.2346 186.502 20.2346 186.253 20.4153L180.083 24.8983C179.527 25.3023 178.778 24.7588 178.991 24.1051L181.348 16.8514C181.443 16.5591 181.339 16.2389 181.09 16.0582L174.92 11.5752C174.364 11.1713 174.649 10.2918 175.337 10.2918H182.964C183.271 10.2918 183.543 10.0939 183.638 9.8016L185.995 2.54789Z" fill="#F0AD18"/>
<path d="M185.995 140.461C186.208 139.807 187.132 139.807 187.345 140.461L189.701 147.714C189.796 148.007 190.069 148.205 190.376 148.205H198.003C198.69 148.205 198.976 149.084 198.42 149.488L192.25 153.971C192.001 154.152 191.897 154.472 191.992 154.764L194.349 162.018C194.561 162.671 193.813 163.215 193.257 162.811L187.087 158.328C186.838 158.147 186.502 158.147 186.253 158.328L180.083 162.811C179.527 163.215 178.778 162.671 178.991 162.018L181.348 154.764C181.443 154.472 181.339 154.152 181.09 153.971L174.92 149.488C174.364 149.084 174.649 148.205 175.337 148.205H182.964C183.271 148.205 183.543 148.007 183.638 147.714L185.995 140.461Z" fill="#F0AD18"/>
<path d="M219.683 10.9704C219.896 10.3168 220.82 10.3168 221.033 10.9704L223.389 18.2241C223.484 18.5164 223.757 18.7143 224.064 18.7143H231.691C232.378 18.7143 232.664 19.5937 232.108 19.9977L225.938 24.4807C225.689 24.6614 225.585 24.9816 225.68 25.2739L228.037 32.5276C228.249 33.1812 227.501 33.7248 226.945 33.3208L220.775 28.8378C220.526 28.6571 220.19 28.6571 219.941 28.8378L213.77 33.3208C213.214 33.7248 212.466 33.1812 212.679 32.5276L215.036 25.2739C215.131 24.9816 215.027 24.6614 214.778 24.4807L208.608 19.9977C208.052 19.5937 208.337 18.7143 209.025 18.7143H216.652C216.959 18.7143 217.231 18.5164 217.326 18.2241L219.683 10.9704Z" fill="#F0AD18"/>
<path d="M219.683 128.881C219.896 128.227 220.82 128.227 221.033 128.881L223.389 136.134C223.484 136.427 223.757 136.625 224.064 136.625H231.691C232.378 136.625 232.664 137.504 232.108 137.908L225.938 142.391C225.689 142.572 225.585 142.892 225.68 143.184L228.037 150.438C228.249 151.092 227.501 151.635 226.945 151.231L220.775 146.748C220.526 146.568 220.19 146.568 219.941 146.748L213.77 151.231C213.214 151.635 212.466 151.092 212.679 150.438L215.036 143.184C215.131 142.892 215.027 142.572 214.778 142.391L208.608 137.908C208.052 137.504 208.337 136.625 209.025 136.625H216.652C216.959 136.625 217.231 136.427 217.326 136.134L219.683 128.881Z" fill="#F0AD18"/>
<path d="M128.389 103.613C128.177 102.959 127.252 102.959 127.04 103.613L124.683 110.867C124.588 111.159 124.315 111.357 124.008 111.357H116.381C115.694 111.357 115.408 112.236 115.964 112.64L122.134 117.123C122.383 117.304 122.487 117.624 122.392 117.916L120.035 125.17C119.823 125.824 120.571 126.367 121.127 125.963L127.297 121.48C127.546 121.3 127.883 121.3 128.131 121.48L134.302 125.963C134.858 126.367 135.606 125.824 135.393 125.17L133.037 117.916C132.942 117.624 133.046 117.304 133.294 117.123L139.465 112.64C140.021 112.236 139.735 111.357 139.048 111.357H131.421C131.113 111.357 130.841 111.159 130.746 110.867L128.389 103.613Z" fill="#F0AD18"/>
<path d="M244.949 36.2355C245.162 35.5819 246.086 35.5819 246.299 36.2355L248.656 43.4892C248.751 43.7815 249.023 43.9794 249.33 43.9794H256.957C257.645 43.9794 257.93 44.8589 257.374 45.2628L251.204 49.7459C250.955 49.9265 250.851 50.2467 250.946 50.5391L253.303 57.7928C253.515 58.4464 252.767 58.9899 252.211 58.5859L246.041 54.1029C245.792 53.9223 245.456 53.9223 245.207 54.1029L239.037 58.5859C238.481 58.9899 237.733 58.4464 237.945 57.7928L240.302 50.5391C240.397 50.2467 240.293 49.9265 240.044 49.7459L233.874 45.2628C233.318 44.8589 233.603 43.9794 234.291 43.9794H241.918C242.225 43.9794 242.497 43.7815 242.592 43.4892L244.949 36.2355Z" fill="#F0AD18"/>
</svg>
