<svg width="80" height="71" viewBox="0 0 80 71" fill="none" xmlns="http://www.w3.org/2000/svg">
<path d="M65.3451 57.9179L65.4804 58.395C66.5233 62.0734 67.9032 65.6478 69.6026 69.0727H58.5332H9.99796C11.6964 65.3643 13.0118 61.4896 13.9231 57.5098L15.1069 52.3405L16.8099 41.1857L18.0872 32.605L18.9387 24.4534L19.3644 16.7309L19.7901 9.0083C19.7901 5.21714 22.8635 2.1438 26.6547 2.1438H41.8765C45.6676 2.1438 48.741 5.21714 48.741 9.0083L49.1667 16.7309L49.5925 24.4534H56.4044H57.2231C59.5925 24.4534 61.5134 26.3743 61.5134 28.7438V36.0373L61.9391 41.1857L62.7906 45.905L64.0679 52.3405L65.3451 57.9179Z" fill="#B97A16"/>
<path d="M2.76025 69.0727H58.5332M77.266 69.0727H69.6026M69.6026 69.0727V69.0727C67.9032 65.6478 66.5233 62.0734 65.4804 58.395L65.3451 57.9179L64.0679 52.3405L62.7906 45.905L61.9391 41.1857L61.5134 36.0373V28.7438V28.7438C61.5134 26.3743 59.5925 24.4534 57.2231 24.4534H56.4044H49.5925M69.6026 69.0727H58.5332M49.5925 24.4534L50.444 32.605L51.7212 41.1857L53.4242 52.3405L54.6093 57.5155C55.5198 61.4916 56.8346 65.3642 58.5332 69.0727V69.0727M49.5925 24.4534L49.1667 16.7309L48.741 9.0083V9.0083C48.741 5.21714 45.6676 2.1438 41.8765 2.1438H26.6547C22.8635 2.1438 19.7901 5.21714 19.7901 9.0083V9.0083L19.3644 16.7309L18.9387 24.4534L18.0872 32.605L16.8099 41.1857L15.1069 52.3405L13.9231 57.5098C13.0118 61.4896 11.6964 65.3643 9.99796 69.0727" stroke="#B97A16" stroke-width="3.78843" stroke-linecap="round"/>
<path d="M45.1961 39.4454C44.8508 37.9557 44.0073 36.9149 42.6655 36.3229C41.9157 35.9974 41.0821 35.8346 40.1646 35.8346C38.4085 35.8346 36.9632 36.5005 35.8286 37.8324C34.7039 39.1544 34.1416 41.1473 34.1416 43.811C34.1416 46.4945 34.7532 48.3936 35.9766 49.5085C37.1999 50.6233 38.591 51.1807 40.1498 51.1807C41.679 51.1807 42.9319 50.7417 43.9086 49.8636C44.8853 48.9757 45.4871 47.8165 45.714 46.386H40.6677V42.7455H49.7541V54.4512H46.7351L46.2764 51.7282C45.3983 52.7641 44.6091 53.4942 43.9086 53.9184C42.705 54.6584 41.2252 55.0283 39.4691 55.0283C36.5784 55.0283 34.2106 54.0269 32.3657 52.0242C30.4419 50.0116 29.48 47.2591 29.48 43.7666C29.48 40.2347 30.4518 37.4032 32.3953 35.2722C34.3389 33.1413 36.9089 32.0758 40.1054 32.0758C42.8777 32.0758 45.1024 32.7812 46.7795 34.192C48.4666 35.5929 49.4334 37.344 49.6801 39.4454H45.1961Z" fill="white"/>
</svg>
