<svg width="98" height="95" viewBox="0 0 98 95" fill="none" xmlns="http://www.w3.org/2000/svg">
<path d="M28.2481 84.6703L31.7068 51.8131M28.2481 84.6703L55.5714 91.9334M28.2481 84.6703L7.8421 64.956M28.2481 84.6703L48.6541 68.7605M31.7068 51.8131L7.8421 64.956M31.7068 51.8131L48.6541 68.7605M31.7068 51.8131L52.1128 42.8207M31.7068 51.8131L36.203 34.5199M7.8421 64.956L22.3684 44.2041M7.8421 64.956L3 38.6703M22.3684 44.2041L3 38.6703M22.3684 44.2041L36.203 34.5199M22.3684 44.2041L19.6015 22.4146M3 38.6703L19.6015 22.4146M3 38.6703L14.0677 16.5349M19.6015 22.4146L38.9699 16.5349M19.6015 22.4146L36.203 34.5199M38.9699 16.5349H14.0677M38.9699 16.5349L36.203 34.5199M38.9699 16.5349L50.7293 30.0237M38.9699 16.5349L50.7293 9.96351M14.0677 16.5349L14.795 16.0358C25.8914 8.42061 38.7237 3.7161 52.1128 2.35449V2.35449M50.7293 9.96351L52.1128 2.35449M50.7293 9.96351V30.0237M52.1128 2.35449L61.5 11.8545M52.1128 2.35449V2.35449C63.9668 5.77393 74.957 11.678 84.3524 19.6741L86.3534 21.377M61.5 11.8545L86.3534 21.377M61.5 11.8545L50.7293 30.0237M86.3534 21.377L77.7068 20.3395M86.3534 21.377L95 41.0913M86.3534 21.377L80.8195 27.9485M77.7068 20.3395V20.3395C70.4042 21.0241 63.3164 23.1828 56.8721 26.6852L50.7293 30.0237M77.7068 20.3395L70.0977 26.9109M50.7293 30.0237L36.203 34.5199M50.7293 30.0237L57.9925 36.941M36.203 34.5199L52.1128 42.8207M52.1128 42.8207L57.9925 36.941M52.1128 42.8207L68.3684 47.3169M52.1128 42.8207L48.6541 68.7605M57.9925 36.941L80.8195 42.8207M57.9925 36.941L70.0977 26.9109M80.8195 42.8207L70.0977 26.9109M80.8195 42.8207V42.8207C85.2174 46.7928 88.6703 51.699 90.925 57.1794L93.2707 62.8808M80.8195 42.8207L68.3684 47.3169M80.8195 42.8207L88.7744 40.0537M70.0977 26.9109L80.8195 27.9485M80.8195 27.9485L88.7744 40.0537M88.7744 40.0537L95 41.0913M95 41.0913L93.2707 62.8808M93.2707 62.8808L86.3534 58.0387M93.2707 62.8808L80.8195 82.5951M86.3534 58.0387L80.8195 82.5951M86.3534 58.0387L68.3684 47.3169M80.8195 82.5951L73.2105 61.4973M80.8195 82.5951L55.5714 91.9334M73.2105 61.4973L55.5714 91.9334M73.2105 61.4973L48.6541 68.7605M73.2105 61.4973L68.3684 47.3169M55.5714 91.9334L48.6541 68.7605M48.6541 68.7605L68.3684 47.3169" stroke="#FFD4A6" stroke-width="4"/>
</svg>
