<svg width="98" height="101" viewBox="0 0 98 101" fill="none" xmlns="http://www.w3.org/2000/svg">
<path d="M49 6.35449C74.4051 6.35449 95 26.9494 95 52.3545C95 77.7596 74.4051 98.3545 49 98.3545C23.5949 98.3545 3 77.7596 3 52.3545C3 34.7412 12.8992 19.4399 27.4375 11.7109M27.4375 11.7109C27.4375 11.7109 25.2472 17.2075 23.8438 20.7295M27.4375 11.7109L16.5 12.0001" stroke="#FFD4A6" stroke-width="5"/>
<circle cx="50.4375" cy="6.10449" r="5.75" fill="#FFD4A6"/>
<circle cx="89.25" cy="29.1045" r="5.75" fill="#FFD4A6"/>
<circle cx="87.8125" cy="76.542" r="5.75" fill="#FFD4A6"/>
<circle cx="10.1875" cy="76.542" r="5.75" fill="#FFD4A6"/>
<circle cx="6.75" cy="32.75" r="5.75" fill="#FFD4A6"/>
<path d="M25.8281 43.0811H29.4375V57.249H37.9922V60.3545H25.8281V43.0811ZM39.75 51.8584C39.75 48.8428 40.5586 46.5186 42.1758 44.8857C43.582 43.4639 45.3711 42.7529 47.543 42.7529C50.4492 42.7529 52.5742 43.7061 53.918 45.6123C54.6602 46.6826 55.0586 47.7568 55.1133 48.835H51.5039C51.2695 48.0068 50.9688 47.3818 50.6016 46.96C49.9453 46.21 48.9727 45.835 47.6836 45.835C46.3711 45.835 45.3359 46.3662 44.5781 47.4287C43.8203 48.4834 43.4414 49.9795 43.4414 51.917C43.4414 53.8545 43.8398 55.3076 44.6367 56.2764C45.4414 57.2373 46.4609 57.7178 47.6953 57.7178C48.9609 57.7178 49.9258 57.3037 50.5898 56.4756C50.957 56.0303 51.2617 55.3623 51.5039 54.4717H55.0781C54.7656 56.3545 53.9648 57.8857 52.6758 59.0654C51.3945 60.2451 49.75 60.835 47.7422 60.835C45.2578 60.835 43.3047 60.0381 41.8828 58.4443C40.4609 56.8428 39.75 54.6475 39.75 51.8584ZM62.5664 53.8271H66.9492L64.793 47.0303L62.5664 53.8271ZM62.7891 43.0811H66.8672L72.9844 60.3545H69.0703L67.957 56.8037H61.5938L60.3984 60.3545H56.625L62.7891 43.0811Z" fill="#FFD4A6"/>
</svg>
