<svg width="73" height="76" viewBox="0 0 73 76" fill="none" xmlns="http://www.w3.org/2000/svg">
<path d="M66.1973 74.0727C67.3277 74.0727 68.4117 73.6047 69.211 72.7716C70.0103 71.9385 70.4593 70.8086 70.4593 69.6305V64.0955C70.4763 51.6307 53.5222 41.8667 36.3634 41.8667C19.2047 41.8667 2.26758 51.6307 2.26758 64.0955V69.6305C2.26758 70.8086 2.71661 71.9385 3.51588 72.7716C4.31516 73.6047 5.39921 74.0727 6.52956 74.0727H66.1973ZM51.7236 18.1022C51.7236 20.2047 51.3263 22.2865 50.5544 24.2289C49.7825 26.1713 48.6511 27.9362 47.2247 29.4228C45.7984 30.9094 44.1051 32.0887 42.2415 32.8933C40.3779 33.6978 38.3806 34.1119 36.3634 34.1119C34.3463 34.1119 32.3489 33.6978 30.4853 32.8933C28.6218 32.0887 26.9285 30.9094 25.5021 29.4228C24.0758 27.9362 22.9444 26.1713 22.1725 24.2289C21.4006 22.2865 21.0033 20.2047 21.0033 18.1022C21.0033 13.8562 22.6216 9.78406 25.5021 6.78166C28.3827 3.77926 32.2897 2.09253 36.3634 2.09253C40.4372 2.09253 44.3441 3.77926 47.2247 6.78166C50.1053 9.78406 51.7236 13.8562 51.7236 18.1022Z" fill="#163E6B" stroke="#163E6B" stroke-width="3.78843" stroke-linecap="round" stroke-linejoin="round"/>
<path d="M32.2625 62.8204C32.4006 63.8168 32.6719 64.5617 33.0764 65.055C33.8163 65.9527 35.0841 66.4016 36.8796 66.4016C37.955 66.4016 38.8281 66.2832 39.499 66.0465C40.7716 65.5926 41.408 64.7491 41.408 63.5159C41.408 62.7957 41.0923 62.2383 40.4609 61.8437C39.8295 61.4589 38.838 61.1185 37.4864 60.8226L35.1778 60.3046C32.9087 59.7916 31.34 59.2342 30.4718 58.6324C29.0019 57.6261 28.2669 56.0525 28.2669 53.9116C28.2669 51.9582 28.9772 50.3353 30.3979 49.0429C31.8185 47.7505 33.9051 47.1043 36.6576 47.1043C38.9563 47.1043 40.9147 47.716 42.5327 48.9393C44.1605 50.1528 45.0139 51.9188 45.0928 54.2372H40.7124C40.6335 52.9251 40.0613 51.9928 38.9958 51.4403C38.2855 51.0753 37.4025 50.8927 36.3469 50.8927C35.1729 50.8927 34.2356 51.1295 33.5351 51.6031C32.8347 52.0766 32.4844 52.7376 32.4844 53.5861C32.4844 54.3655 32.8297 54.9475 33.5203 55.3323C33.9643 55.5888 34.9114 55.8897 36.3617 56.235L40.1205 57.1377C41.7681 57.5324 43.0112 58.0602 43.8497 58.7212C45.152 59.7472 45.8031 61.232 45.8031 63.1755C45.8031 65.1684 45.0386 66.8258 43.5094 68.1478C41.9901 69.46 39.8393 70.1161 37.0572 70.1161C34.2159 70.1161 31.9813 69.4699 30.3535 68.1774C28.7256 66.8752 27.9117 65.0895 27.9117 62.8204H32.2625Z" fill="white"/>
</svg>
