<svg width="98" height="108" viewBox="0 0 98 108" fill="none" xmlns="http://www.w3.org/2000/svg">
<path d="M93.2274 28.8804C91.0529 25.1136 75.7511 16.7908 71.9816 14.6135C68.2148 12.4445 53.3518 3.35449 49 3.35449C44.6482 3.35449 29.7852 12.4417 26.0184 14.6135C22.2489 16.7908 6.94712 25.1136 4.76983 28.8804C2.5953 32.6472 3.03683 50.0572 3.03683 54.4063C3.03683 58.7553 2.5953 76.1654 4.77259 79.9322C6.94712 83.699 22.2489 92.0218 26.0184 94.1991C29.788 96.3764 44.6482 105.458 49 105.458C53.3518 105.458 68.2148 96.3708 71.9816 94.1991C75.7511 92.0218 91.0529 83.699 93.2302 79.9322C95.4047 76.1654 94.9632 58.7553 94.9632 54.4063C94.9632 50.0572 95.4047 32.6472 93.2274 28.8804Z" stroke="#FFD4A6" stroke-width="4.98795" stroke-linecap="round" stroke-linejoin="round"/>
<path d="M36.0276 8.86243L64.6442 25.3784V63.623M48.1035 34.9789L14.9336 54.1219V87.7443" stroke="#FFD4A6" stroke-width="4.98795" stroke-linecap="round" stroke-linejoin="round"/>
<path d="M3.08301 41.8364L31.5506 25.4032L48.0969 34.9678L48.0721 54.0915M31.5506 63.6506L64.6929 82.7771L94.9486 65.3174" stroke="#FFD4A6" stroke-width="4.98795" stroke-linecap="round" stroke-linejoin="round"/>
<path d="M61.6337 100.135L31.5049 82.7495L31.527 63.6534L48.1229 54.0915L64.6941 63.6534L81.2128 54.1219V19.9503" stroke="#FFD4A6" stroke-width="4.98795" stroke-linecap="round" stroke-linejoin="round"/>
</svg>
