<svg width="92" height="65" viewBox="0 0 92 65" fill="none" xmlns="http://www.w3.org/2000/svg">
<path d="M91.7776 23.3833L86.411 9.96667C85.9557 8.8315 85.17 7.85921 84.1558 7.17574C83.1415 6.49227 81.9454 6.12912 80.7223 6.13333H67.4667V3.06667C67.4667 2.25334 67.1436 1.47332 66.5685 0.898206C65.9933 0.323095 65.2133 0 64.4 0H6.13333C4.50667 0 2.94663 0.646188 1.79641 1.79641C0.646188 2.94663 0 4.50667 0 6.13333V49.0667C0 50.6933 0.646188 52.2534 1.79641 53.4036C2.94663 54.5538 4.50667 55.2 6.13333 55.2H12.65C13.3256 57.8386 14.8601 60.1773 17.0117 61.8474C19.1634 63.5175 21.8096 64.424 24.5333 64.424C27.2571 64.424 29.9033 63.5175 32.0549 61.8474C34.2065 60.1773 35.7411 57.8386 36.4167 55.2H55.5833C56.2589 57.8386 57.7935 60.1773 59.9451 61.8474C62.0967 63.5175 64.7429 64.424 67.4667 64.424C70.1904 64.424 72.8366 63.5175 74.9882 61.8474C77.1398 60.1773 78.6744 57.8386 79.35 55.2H85.8667C87.4933 55.2 89.0533 54.5538 90.2036 53.4036C91.3538 52.2534 92 50.6933 92 49.0667V24.5333C92.0014 24.1392 91.9259 23.7485 91.7776 23.3833ZM67.4667 12.2667H80.7223L84.4023 21.4667H67.4667V12.2667ZM6.13333 6.13333H61.3333V30.6667H6.13333V6.13333ZM24.5333 58.2667C23.3203 58.2667 22.1345 57.9069 21.1258 57.233C20.1172 56.5591 19.3311 55.6012 18.8669 54.4804C18.4027 53.3597 18.2812 52.1265 18.5178 50.9368C18.7545 49.747 19.3386 48.6542 20.1964 47.7964C21.0542 46.9386 22.147 46.3545 23.3368 46.1178C24.5265 45.8812 25.7597 46.0026 26.8805 46.4669C28.0012 46.9311 28.9591 47.7172 29.633 48.7258C30.3069 49.7344 30.6667 50.9203 30.6667 52.1333C30.6667 53.76 30.0205 55.32 28.8702 56.4702C27.72 57.6205 26.16 58.2667 24.5333 58.2667ZM55.5833 49.0667H36.4167C35.7411 46.4281 34.2065 44.0893 32.0549 42.4192C29.9033 40.7491 27.2571 39.8426 24.5333 39.8426C21.8096 39.8426 19.1634 40.7491 17.0117 42.4192C14.8601 44.0893 13.3256 46.4281 12.65 49.0667H6.13333V36.8H61.3333V41.5188C59.923 42.3338 58.6886 43.4206 57.7015 44.7162C56.7145 46.0119 55.9945 47.4906 55.5833 49.0667ZM67.4667 58.2667C66.2536 58.2667 65.0678 57.9069 64.0592 57.233C63.0505 56.5591 62.2644 55.6012 61.8002 54.4804C61.336 53.3597 61.2145 52.1265 61.4512 50.9368C61.6878 49.747 62.272 48.6542 63.1297 47.7964C63.9875 46.9386 65.0804 46.3545 66.2701 46.1178C67.4599 45.8812 68.6931 46.0026 69.8138 46.4669C70.9345 46.9311 71.8924 47.7172 72.5663 48.7258C73.2403 49.7344 73.6 50.9203 73.6 52.1333C73.6 53.76 72.9538 55.32 71.8036 56.4702C70.6534 57.6205 69.0933 58.2667 67.4667 58.2667ZM85.8667 49.0667H79.35C78.6663 46.4345 77.1288 44.1034 74.9784 42.4386C72.828 40.7738 70.1862 39.8692 67.4667 39.8667V27.6H85.8667V49.0667Z" fill="#FFD4A6"/>
</svg>
