<svg width="77" height="58" viewBox="0 0 77 58" fill="none" xmlns="http://www.w3.org/2000/svg">
<path opacity="0.8" d="M38.4592 18.9848C38.4592 13.0308 30.8663 8.2 21.5 8.2C12.1337 8.2 4.54079 13.0282 4.54079 18.9848C4.54079 24.9414 9.16579 28.2304 21.5 28.2304C33.8342 28.2304 40 31.3114 40 39.0152C40 46.719 31.7173 49.8 21.5 49.8C11.2827 49.8 3 44.9718 3 39.0152M21.5 3V55" stroke="#FFD4A6" stroke-width="5" stroke-linecap="round" stroke-linejoin="round"/>
<path opacity="0.8" d="M56 54.5V22.211M63 28.988L56 22L49 28.988" stroke="#FFD4A6" stroke-width="5" stroke-linecap="round" stroke-linejoin="round"/>
<path opacity="0.8" d="M69.0093 55L69 41.1641M74 46.4351L69 41L64 46.4351" stroke="#FFD4A6" stroke-width="5" stroke-linecap="round" stroke-linejoin="round"/>
</svg>
