<svg width="59" height="57" viewBox="0 0 59 57" fill="none" xmlns="http://www.w3.org/2000/svg">
<path d="M49.285 54H9.71501C6.00641 54 3 50.9936 3 47.285C3 44.5988 4.60083 42.1711 7.06983 41.1129L8.5 40.5L14 38.5L19.5 37L22.0441 36.3567C24.4815 35.7403 26.9859 35.4286 29.5 35.4286C32.0141 35.4286 34.5185 35.7403 36.9559 36.3567L39.5 37L44.5 38.5L50.5 40.5L51.9302 41.1129C54.3992 42.1711 56 44.5988 56 47.285C56 50.9936 52.9936 54 49.285 54Z" stroke="#FFD4A6" stroke-width="5"/>
<path d="M34.1117 22.0234L34.0084 22.074C31.1647 23.4691 27.8353 23.4691 24.9916 22.074L24.8883 22.0234C22.9671 21.0809 21.4033 19.5408 20.4317 17.6342C18.9938 14.8126 18.9938 11.4731 20.4317 8.65156C21.4033 6.74493 22.9671 5.20482 24.8883 4.26234L24.9916 4.21169C27.8353 2.81664 31.1647 2.81664 34.0084 4.21169L34.1117 4.26234C36.0329 5.20482 37.5967 6.74493 38.5683 8.65156C40.0062 11.4731 40.0062 14.8126 38.5683 17.6342C37.5967 19.5408 36.0329 21.0809 34.1117 22.0234Z" stroke="#FFD4A6" stroke-width="5"/>
</svg>
