<svg width="52" height="52" viewBox="0 0 52 52" fill="none" xmlns="http://www.w3.org/2000/svg">
<path opacity="0.8" d="M51.9999 23.3953C52.0072 21.5595 51.5308 19.7543 50.6191 18.1625C49.7074 16.5708 48.3927 15.2491 46.8082 14.3311C46.8472 13.8805 46.8472 13.4273 46.8082 12.9767C46.8082 10.9043 45.9877 8.91679 44.5272 7.45138C43.0668 5.98598 41.0859 5.16272 39.0205 5.16272H38.5533C38.121 3.96018 37.4013 2.88243 36.4572 2.02397C35.5131 1.16551 34.3736 0.552565 33.1385 0.238885C31.9034 -0.074794 30.6104 -0.0796269 29.373 0.224811C28.1356 0.529249 26.9915 1.13366 26.0411 1.98504C25.0907 1.13366 23.9467 0.529249 22.7093 0.224811C21.4718 -0.0796269 20.1789 -0.074794 18.9438 0.238885C17.7087 0.552565 16.5691 1.16551 15.6251 2.02397C14.681 2.88243 13.9613 3.96018 13.529 5.16272H13.0617C10.9963 5.16272 9.01552 5.98598 7.55505 7.45138C6.09459 8.91679 5.27411 10.9043 5.27411 12.9767C5.23504 13.4273 5.23504 13.8805 5.27411 14.3311C3.80084 15.1667 2.55345 16.3509 1.6405 17.7807C0.727553 19.2104 0.17673 20.8424 0.0359779 22.5346C-0.104774 24.2268 0.168812 25.9278 0.83292 27.4897C1.49703 29.0515 2.53153 30.4268 3.84637 31.4958C2.99563 33.088 2.57209 34.8747 2.61734 36.6807C2.66259 38.4866 3.17506 40.2498 4.10446 41.797C5.03386 43.3442 6.34825 44.6224 7.9186 45.506C9.48897 46.3897 11.2613 46.8484 13.0617 46.8373H13.529C13.9613 48.0398 14.681 49.1176 15.6251 49.976C16.5691 50.8345 17.7087 51.4474 18.9438 51.7611C20.1789 52.0748 21.4718 52.0796 22.7093 51.7752C23.9467 51.4708 25.0907 50.8663 26.0411 50.015C26.9915 50.8663 28.1356 51.4708 29.373 51.7752C30.6104 52.0796 31.9034 52.0748 33.1385 51.7611C34.3736 51.4474 35.5131 50.8345 36.4572 49.976C37.4013 49.1176 38.121 48.0398 38.5533 46.8373H39.0205C40.8099 46.8259 42.5661 46.3508 44.1186 45.4579C45.6711 44.565 46.9672 43.2847 47.8813 41.7411C48.7955 40.1976 49.2965 38.4432 49.3359 36.6481C49.3753 34.8531 48.9517 33.0782 48.1061 31.4958C49.3169 30.5231 50.2952 29.2906 50.969 27.8889C51.6428 26.4871 51.9951 24.9516 51.9999 23.3953ZM23.4453 17.0139C22.8785 16.6921 22.2885 16.4134 21.6801 16.1804C21.026 15.9594 20.3112 16.0081 19.693 16.3158C19.0747 16.6235 18.6036 17.1651 18.3833 17.8214C18.163 18.4776 18.2115 19.1948 18.5182 19.8152C18.8249 20.4355 19.3647 20.9082 20.0187 21.1293C21.018 21.4918 21.8823 22.1532 22.4951 23.0242C23.1078 23.8952 23.4395 24.9339 23.4453 26V30.0372C22.8785 29.7154 22.2885 29.4367 21.6801 29.2037C21.026 28.9827 20.3112 29.0314 19.693 29.3391C19.0747 29.6468 18.6036 30.1884 18.3833 30.8447C18.163 31.5009 18.2115 32.2181 18.5182 32.8385C18.8249 33.4588 19.3647 33.9315 20.0187 34.1526C21.018 34.5151 21.8823 35.1764 22.4951 36.0475C23.1078 36.9185 23.4395 37.9572 23.4453 39.0233V44.2326C23.4453 44.9234 23.1718 45.5859 22.6849 46.0744C22.1981 46.5629 21.5378 46.8373 20.8494 46.8373C20.3472 46.834 19.8567 46.6846 19.4374 46.4072C19.0181 46.1298 18.688 45.7363 18.4871 45.2745C18.9227 45.0187 19.3392 44.7315 19.7331 44.4149C19.9956 44.196 20.2126 43.9274 20.3716 43.6244C20.5306 43.3213 20.6286 42.9898 20.6599 42.6488C20.6913 42.3078 20.6554 41.9639 20.5542 41.6368C20.4531 41.3097 20.2888 41.0057 20.0706 40.7424C19.8524 40.479 19.5847 40.2613 19.2827 40.1018C18.9807 39.9422 18.6503 39.8439 18.3104 39.8125C17.9705 39.781 17.6278 39.817 17.3018 39.9185C16.9758 40.02 16.6729 40.1849 16.4104 40.4038C15.4731 41.1955 14.287 41.6291 13.0617 41.628C11.6848 41.628 10.3643 41.0791 9.39061 40.1022C8.41697 39.1252 7.86998 37.8002 7.86998 36.4186C7.88241 35.4382 8.17033 34.4812 8.70067 33.6577C9.28355 33.7602 9.8741 33.8125 10.4659 33.814C11.1543 33.814 11.8146 33.5396 12.3014 33.0511C12.7882 32.5626 13.0617 31.9001 13.0617 31.2093C13.0617 30.5185 12.7882 29.856 12.3014 29.3675C11.8146 28.8791 11.1543 28.6047 10.4659 28.6047C9.85245 28.6109 9.24382 28.4958 8.67471 28.2661C7.74108 27.9282 6.92354 27.3289 6.31892 26.5392C5.71431 25.7495 5.34796 24.8024 5.26327 23.8102C5.17859 22.818 5.37913 21.8222 5.84112 20.9408C6.30311 20.0594 7.00721 19.3294 7.86998 18.8372C8.23785 19.1789 8.63774 19.4842 9.06409 19.7488C9.66306 20.0942 10.3742 20.1867 11.0412 20.006C11.7081 19.8253 12.2762 19.3861 12.6204 18.7851C12.9647 18.1841 13.0569 17.4705 12.8767 16.8013C12.6966 16.1321 12.2589 15.5621 11.66 15.2167C11.2945 15.0144 10.9898 14.7176 10.7774 14.3572C10.5343 13.9402 10.4255 13.4581 10.4659 12.9767C10.4659 12.2859 10.7394 11.6234 11.2262 11.1349C11.713 10.6465 12.3733 10.372 13.0617 10.372C13.2427 10.348 13.426 10.348 13.6069 10.372C13.7453 10.7902 13.9101 11.199 14.1001 11.5962C14.2697 11.8947 14.4964 12.1565 14.7673 12.3667C15.0382 12.5769 15.3478 12.7312 15.6784 12.8207C16.0089 12.9103 16.3539 12.9334 16.6934 12.8886C17.0329 12.8439 17.3602 12.7322 17.6564 12.56C18.232 12.2125 18.6509 11.6548 18.8251 11.0039C18.9994 10.3531 18.9155 9.65977 18.591 9.06971C18.3731 8.67017 18.2572 8.22277 18.2535 7.76738C18.2535 7.07658 18.527 6.41408 19.0138 5.92561C19.5006 5.43714 20.1609 5.16272 20.8494 5.16272C21.5378 5.16272 22.1981 5.43714 22.6849 5.92561C23.1718 6.41408 23.4453 7.07658 23.4453 7.76738V17.0139ZM43.4076 28.2661C42.8385 28.4958 42.2298 28.6109 41.6164 28.6047C40.9279 28.6047 40.2677 28.8791 39.7808 29.3675C39.294 29.856 39.0205 30.5185 39.0205 31.2093C39.0205 31.9001 39.294 32.5626 39.7808 33.0511C40.2677 33.5396 40.9279 33.814 41.6164 33.814C42.2082 33.8125 42.7987 33.7602 43.3816 33.6577C43.9119 34.4812 44.1999 35.4382 44.2123 36.4186C44.2123 37.8002 43.6653 39.1252 42.6917 40.1022C41.718 41.0791 40.3975 41.628 39.0205 41.628C37.7953 41.6291 36.6091 41.1955 35.6718 40.4038C35.1417 39.9617 34.4583 39.749 33.7719 39.8125C33.0854 39.876 32.4523 40.2105 32.0117 40.7424C31.571 41.2743 31.3591 41.96 31.4223 42.6488C31.4856 43.3375 31.819 43.9728 32.3491 44.4149C32.7431 44.7315 33.1595 45.0187 33.5951 45.2745C33.3943 45.7363 33.0642 46.1298 32.6449 46.4072C32.2256 46.6846 31.7351 46.834 31.2329 46.8373C30.5444 46.8373 29.8842 46.5629 29.3973 46.0744C28.9105 45.5859 28.637 44.9234 28.637 44.2326V39.0233C28.6428 37.9572 28.9744 36.9185 29.5872 36.0475C30.2 35.1764 31.0643 34.5151 32.0636 34.1526C32.7176 33.9315 33.2574 33.4588 33.5641 32.8385C33.8708 32.2181 33.9193 31.5009 33.699 30.8447C33.4787 30.1884 33.0076 29.6468 32.3893 29.3391C31.771 29.0314 31.0563 28.9827 30.4022 29.2037C29.7938 29.4367 29.2037 29.7154 28.637 30.0372V26C28.6428 24.9339 28.9744 23.8952 29.5872 23.0242C30.2 22.1532 31.0643 21.4918 32.0636 21.1293C32.3874 21.0198 32.6866 20.8474 32.9441 20.622C33.2015 20.3965 33.4122 20.1223 33.5641 19.8152C33.7159 19.508 33.806 19.1738 33.8291 18.8317C33.8523 18.4896 33.8081 18.1463 33.699 17.8214C33.5899 17.4964 33.4181 17.1962 33.1934 16.9379C32.9687 16.6796 32.6954 16.4682 32.3893 16.3158C32.0832 16.1634 31.7501 16.0731 31.4092 16.0498C31.0682 16.0266 30.7261 16.071 30.4022 16.1804C29.7938 16.4134 29.2037 16.6921 28.637 17.0139V7.76738C28.637 7.07658 28.9105 6.41408 29.3973 5.92561C29.8842 5.43714 30.5444 5.16272 31.2329 5.16272C31.9214 5.16272 32.5816 5.43714 33.0685 5.92561C33.5553 6.41408 33.8288 7.07658 33.8288 7.76738C33.8251 8.22277 33.7091 8.67017 33.4913 9.06971C33.3186 9.36544 33.2058 9.69246 33.1593 10.032C33.1128 10.3716 33.1335 10.717 33.2203 11.0485C33.3071 11.3801 33.4583 11.6911 33.6652 11.9639C33.872 12.2366 34.1305 12.4658 34.4258 12.6381C34.7221 12.8103 35.0494 12.922 35.3889 12.9668C35.7284 13.0115 36.0733 12.9885 36.4039 12.8989C36.7345 12.8093 37.0441 12.655 37.315 12.4448C37.5858 12.2347 37.8126 11.9728 37.9822 11.6744C38.1754 11.2518 38.3401 10.8167 38.4754 10.372C38.6563 10.348 38.8396 10.348 39.0205 10.372C39.709 10.372 40.3693 10.6465 40.8561 11.1349C41.3429 11.6234 41.6164 12.2859 41.6164 12.9767C41.6124 13.4873 41.459 13.9855 41.1751 14.4093C40.9628 14.7473 40.6679 15.0252 40.3185 15.2167C39.7195 15.5621 39.2818 16.1321 39.1017 16.8013C38.9216 17.4705 39.0138 18.1841 39.358 18.7851C39.7022 19.3861 40.2703 19.8253 40.9372 20.006C41.6042 20.1867 42.3154 20.0942 42.9143 19.7488C43.3799 19.4951 43.8154 19.1893 44.2123 18.8372C45.078 19.3207 45.7878 20.0427 46.2577 20.9179C46.7277 21.7931 46.9383 22.7849 46.8646 23.7763C46.7909 24.7677 46.436 25.7173 45.8419 26.5128C45.2477 27.3084 44.439 27.9167 43.5114 28.2661H43.4076Z" fill="#FFD4A6"/>
</svg>
