<svg width="60" height="52" viewBox="0 0 60 52" fill="none" xmlns="http://www.w3.org/2000/svg">
<g opacity="0.8">
<circle cx="54.6702" cy="19.8248" r="3.32478" stroke="#FFD4A6" stroke-width="3"/>
<circle cx="4.82478" cy="4.82478" r="3.32478" transform="matrix(1 0 0 -1 49.8455 45.4331)" stroke="#FFD4A6" stroke-width="3"/>
<circle cx="39.8248" cy="29.8455" r="3.32478" stroke="#FFD4A6" stroke-width="3"/>
<path d="M51.2476 22L42.2476 28" stroke="#FFD4A6" stroke-width="3"/>
<path d="M52.2476 39L43.2476 32" stroke="#FFD4A6" stroke-width="3"/>
</g>
<path opacity="0.8" d="M8.06 36.4C13.78 46.28 26.52 49.66 36.4 43.94C37.411 43.3738 38.3591 42.7322 39.2394 42.0239C40.0544 41.3681 41.1134 41.0627 42.1325 41.2989L42.274 41.3317C42.7485 41.4417 43.1826 41.6826 43.5269 42.0269L43.6131 42.1131C43.8669 42.3669 44.0524 42.6808 44.1524 43.0255C44.3671 43.7656 44.1697 44.5691 43.6035 45.0918C38.9637 49.3749 32.7736 52 26 52C11.7 52 0 40.3 0 26C0 11.7 11.7 0 26 0C32.76 0 39 2.6 43.94 7.28V2.6C43.94 1.04 44.98 0 46.54 0C48.1 0 49.14 1.04 49.14 2.6V14.3C49.14 15.86 48.1 16.9 46.54 16.9H34.84C33.28 16.9 32.24 15.86 32.24 14.3C32.24 12.74 33.28 11.7 34.84 11.7H41.08C34.58 4.94 24.18 3.12 15.6 8.06C5.72 13.78 2.34 26.52 8.06 36.4Z" fill="#FFD4A6"/>
</svg>
