<svg width="98" height="98" viewBox="0 0 98 98" fill="none" xmlns="http://www.w3.org/2000/svg">
<path d="M35.7245 50.9411H39.8368L37.8137 44.5638L35.7245 50.9411ZM35.9334 40.8584H39.7598L45.4994 57.0656H41.827L40.7824 53.734H34.8119L33.6904 57.0656H30.1499L35.9334 40.8584ZM56.6927 46.0152C56.6927 45.1722 56.4691 44.5711 56.022 44.212C55.5822 43.8528 54.9628 43.6732 54.1638 43.6732H51.0081V48.4452H54.1638C54.9628 48.4452 55.5822 48.2509 56.022 47.8624C56.4691 47.4739 56.6927 46.8582 56.6927 46.0152ZM60.0463 45.9932C60.0463 47.9064 59.5625 49.2588 58.5949 50.0505C57.6273 50.8422 56.2456 51.238 54.4497 51.238H51.0081V57.0656H47.6435V40.8584H54.7025C56.3299 40.8584 57.6273 41.2762 58.5949 42.1118C59.5625 42.9475 60.0463 44.2413 60.0463 45.9932ZM65.6869 57.0656H62.3223V40.8584H65.6869V57.0656Z" fill="#FFD4A6"/>
<path d="M81.5067 39.8662L93.3256 41.7982C93.7936 41.8753 94.2189 42.1163 94.5256 42.4781C94.8324 42.8398 95.0005 43.2989 95 43.7732V54.7702C94.9998 55.2408 94.8336 55.6962 94.5307 56.0563C94.2278 56.4164 93.8076 56.6582 93.344 56.739L81.5067 58.8182C80.8238 61.198 79.8854 63.4693 78.6915 65.6324L85.6896 75.3476C85.9686 75.7332 86.1009 76.2057 86.0627 76.6801C86.0244 77.1546 85.8182 77.5998 85.4811 77.9358L77.704 85.7129C77.3718 86.0465 76.9325 86.2522 76.4635 86.2937C75.9945 86.3352 75.5259 86.2099 75.1403 85.9398L65.3269 79.0521C63.154 80.2586 60.8543 81.2212 58.4699 81.9225L56.3845 93.7046C56.3022 94.1681 56.059 94.5877 55.6978 94.8895C55.3365 95.1913 54.8803 95.356 54.4096 95.3545H43.4187C42.946 95.355 42.4885 95.1875 42.1279 94.8819C41.7673 94.5764 41.527 94.1526 41.4499 93.6862L39.4933 81.9654C37.0991 81.2721 34.7891 80.3156 32.6056 79.1134L22.8659 85.9398C22.4802 86.2099 22.0116 86.3352 21.5426 86.2937C21.0736 86.2522 20.6344 86.0465 20.3021 85.7129L12.5189 77.9358C12.1884 77.5988 11.986 77.157 11.9468 76.6866C11.9076 76.2162 12.0341 75.7468 12.3043 75.3598L19.192 65.7305C17.9767 63.5366 17.0098 61.2141 16.3093 58.806L4.64987 56.739C4.18742 56.6569 3.76864 56.4146 3.46696 56.0546C3.16529 55.6946 2.99997 55.2399 3 54.7702V43.7732C3 42.7918 3.70533 41.9577 4.6744 41.7982L16.3339 39.854C17.0412 37.4415 18.0021 35.1354 19.2165 32.9356L12.4085 23.2081C12.1401 22.823 12.0157 22.3557 12.0572 21.8881C12.0987 21.4204 12.3034 20.9823 12.6355 20.6505L20.4187 12.8796C20.7532 12.5447 21.1956 12.3393 21.6673 12.3C22.139 12.2607 22.6094 12.39 22.9947 12.6649L32.6547 19.5649C34.834 18.3709 37.1259 17.4305 39.5301 16.7436L41.4437 5.02889C41.5208 4.56091 41.7618 4.13557 42.1236 3.82885C42.4853 3.52213 42.9444 3.354 43.4187 3.35449H54.4157C55.3909 3.35449 56.2189 4.05369 56.3907 5.01049L58.4515 16.7865C60.8435 17.4775 63.1333 18.4282 65.3208 19.6385L74.9992 12.6772C75.3841 12.3974 75.8562 12.2641 76.3307 12.3012C76.8051 12.3383 77.2507 12.5433 77.5875 12.8796L85.3645 20.6566C85.6972 20.9896 85.9018 21.4293 85.9421 21.8983C85.9825 22.3672 85.8562 22.8354 85.5853 23.2204L78.6853 33.0521C79.8711 35.2192 80.8116 37.4885 81.5067 39.8601V39.8662Z" stroke="#FFD4A6" stroke-width="5"/>
</svg>
